<svg xmlns="http://www.w3.org/2000/svg" xmlns:xlink="http://www.w3.org/1999/xlink" viewBox="0 0 512 512"><path fill="#999999" d="m459.75 44.527344h-24.5625v-29.527344c0-8.285156-6.714844-15-15-15-8.28125 0-15 6.714844-15 15v29.527344h-54.152344v-29.527344c0-8.285156-6.714844-15-15-15-8.28125 0-15 6.714844-15 15v29.527344h-53.496094v-29.527344c0-8.285156-6.714843-15-15-15-8.28125 0-15 6.714844-15 15v29.527344h-54.152343v-29.527344c0-8.285156-6.714844-15-15-15-8.28125 0-15 6.714844-15 15v29.527344h-54.152344v-29.527344c0-8.285156-6.714844-15-15-15s-15 6.714844-15 15v29.527344h-16.984375c-28.8125 0-52.25 23.4375-52.25 52.25v362.972656c0 28.8125 23.4375 52.25 52.25 52.25h407.5c28.8125 0 52.25-23.4375 52.25-52.25v-362.972656c0-28.8125-23.4375-52.25-52.25-52.25zm-407.5 30h16.984375v20.554687c0 8.28125 6.714844 15 15 15s15-6.71875 15-15v-20.554687h54.152344v20.554687c0 8.28125 6.714843 15 15 15 8.285156 0 15-6.71875 15-15v-20.554687h54.152343v20.554687c0 8.28125 6.71875 15 15 15 8.285157 0 15-6.71875 15-15v-20.554687h53.496094v20.554687c0 8.28125 6.714844 15 15 15s15-6.71875 15-15v-20.554687h54.152344v20.554687c0 8.28125 6.714844 15 15 15s15-6.71875 15-15v-20.554687h24.5625c12.269531 0 22.25 9.980468 22.25 22.25v46.773437h-452v-46.773437c0-12.269532 9.980469-22.25 22.25-22.25zm407.5 407.472656h-407.5c-12.269531 0-22.25-9.980469-22.25-22.25v-286.199219h452v286.199219c0 12.269531-9.980469 22.25-22.25 22.25zm0 0"/><path fill="#999999" d="m402.628906 208.886719h-300.832031c-17.957031 0-32.5625 14.605469-32.5625 32.5625v167.253906c0 17.953125 14.605469 32.5625 32.5625 32.5625h300.832031c17.953125 0 32.5625-14.605469 32.5625-32.5625v-167.253906c-.003906-17.957031-14.609375-32.5625-32.5625-32.5625zm-219.242187 98.1875h54.152343v36h-54.152343zm-30 36h-54.152344v-36h54.152344zm84.152343-66h-54.152343v-38.1875h54.152343zm30-38.1875h53.496094v38.1875h-53.496094zm-30 134.1875v38.191406h-54.152343v-38.191406zm30 0h53.496094v38.191406h-53.496094zm0-30v-36h53.496094v36zm83.496094-36h54.152344v36h-54.152344zm54.152344-65.625v35.625h-54.152344v-38.1875h51.59375c1.410156 0 2.558594 1.148437 2.558594 2.5625zm-303.390625-2.5625h51.589844v38.1875h-54.152344v-35.625c0-1.414063 1.148437-2.5625 2.5625-2.5625zm-2.5625 169.816406v-35.628906h54.152344v38.191406h-51.59375c-1.410157 0-2.558594-1.152344-2.558594-2.5625zm303.394531 2.5625h-51.59375v-38.191406h54.152344v35.628906c0 1.410156-1.148438 2.5625-2.558594 2.5625zm0 0"/></svg>