<svg xmlns="http://www.w3.org/2000/svg" viewBox="0 0 499.93 35.12"><path fill="#f4a53b" d="M468.32,5a4.74,4.74,0,0,1,.7-2.52,5.2,5.2,0,0,1,7.1-1.8.42.42,0,0,1,.25.4.54.54,0,0,1-.15.35L474.87,3a.47.47,0,0,1-.32.14A.54.54,0,0,1,474.3,3a2,2,0,0,0-.83-.16,2.16,2.16,0,0,0-1.09.28,2.09,2.09,0,0,0-.79.77A1.94,1.94,0,0,0,471.3,5a2.05,2.05,0,0,0,.29,1,2.21,2.21,0,0,0,.8.78,2.13,2.13,0,0,0,1.08.29,2.31,2.31,0,0,0,.9-.19.46.46,0,0,1,.23-.06.4.4,0,0,1,.31.13l1.51,1.48a.53.53,0,0,1,.17.38.45.45,0,0,1-.21.37,5.31,5.31,0,0,1-2.89.88A5.2,5.2,0,0,1,469,7.57,4.8,4.8,0,0,1,468.32,5Z"/><path fill="#f4a53b" d="M477,5.12a5,5,0,0,1,.68-2.52A5.23,5.23,0,0,1,479.55.76a4.91,4.91,0,0,1,2.52-.68,5,5,0,0,1,2.53.68,5.18,5.18,0,0,1,1.85,1.84,5,5,0,0,1,0,5.05,5.18,5.18,0,0,1-1.85,1.84,5,5,0,0,1-2.53.68,4.91,4.91,0,0,1-2.52-.68,5.23,5.23,0,0,1-1.84-1.84A5,5,0,0,1,477,5.12ZM484.22,5a2.08,2.08,0,0,0-.3-1.09,2.27,2.27,0,0,0-.81-.79,2,2,0,0,0-1.08-.3,2.15,2.15,0,0,0-1.11.3,2.22,2.22,0,0,0-.79.79A2.17,2.17,0,0,0,479.84,5a2.2,2.2,0,0,0,.29,1.1A2.14,2.14,0,0,0,482,7.19a2.13,2.13,0,0,0,1.08-.29,2.3,2.3,0,0,0,.81-.8A2.12,2.12,0,0,0,484.22,5Z"/><path fill="#f4a53b" d="M488.37,9.4V.73a.49.49,0,0,1,.14-.34.52.52,0,0,1,.35-.14H491a.79.79,0,0,1,.29.06.63.63,0,0,1,.21.13l2.56,2.81,2.69-2.8a.6.6,0,0,1,.36-.17,3.23,3.23,0,0,1,.48,0h1.86a.47.47,0,0,1,.33.14.46.46,0,0,1,.15.34V9.4a.52.52,0,0,1-.14.35.48.48,0,0,1-.34.14H497.6a.57.57,0,0,1-.37-.14.49.49,0,0,1-.15-.35V4.33l-2.22,2.81a.87.87,0,0,1-.7.37.93.93,0,0,1-.4-.09.76.76,0,0,1-.29-.24l-2.28-2.85,0,5.07a.52.52,0,0,1-.14.35.48.48,0,0,1-.35.14h-1.86a.49.49,0,0,1-.35-.15A.49.49,0,0,1,488.37,9.4Z"/><path fill="#f4a53b" d="M466.41,5.36A4.33,4.33,0,1,1,462.09,1,4.33,4.33,0,0,1,466.41,5.36Z"/><path fill="#ffffff" d="M25.13,3.14a1.83,1.83,0,0,1,1.32.55A1.69,1.69,0,0,1,27,5v5.13a1.79,1.79,0,0,1-.58,1.33,1.78,1.78,0,0,1-1.32.58h-7V32a2.08,2.08,0,0,1-.51,1.42,1.62,1.62,0,0,1-1.26.57H10.48a1.64,1.64,0,0,1-1.26-.55A2,2,0,0,1,8.71,32L9,12H2a1.85,1.85,0,0,1-1.4-.58A1.84,1.84,0,0,1,0,10.08V5A1.7,1.7,0,0,1,.55,3.67,2,2,0,0,1,2,3.14Z"/><path fill="#ffffff" d="M41.09,10.93v3.58H53.57a1.73,1.73,0,0,1,1.26.55,1.89,1.89,0,0,1,.55,1.39V20.3a1.92,1.92,0,0,1-.55,1.35,1.68,1.68,0,0,1-1.26.6H41.09v3.94h13.1a1.77,1.77,0,0,1,1.3.55,2,2,0,0,1,.56,1.44V32a2,2,0,0,1-.56,1.4,1.74,1.74,0,0,1-1.3.59H33.31A1.76,1.76,0,0,1,32,33.38a2,2,0,0,1-.55-1.4V5.13A1.92,1.92,0,0,1,32,3.74a1.8,1.8,0,0,1,1.31-.56H54.19a1.78,1.78,0,0,1,1.3.56,1.88,1.88,0,0,1,.56,1.39V9a1.92,1.92,0,0,1-.58,1.35,1.74,1.74,0,0,1-1.28.6Z"/><path fill="#ffffff" d="M71,10.93v3.58H83.47a1.73,1.73,0,0,1,1.26.55,1.9,1.9,0,0,1,.56,1.39V20.3a1.93,1.93,0,0,1-.56,1.35,1.68,1.68,0,0,1-1.26.6H71v3.94H84.09a1.79,1.79,0,0,1,1.31.55A1.94,1.94,0,0,1,86,28.18V32a2,2,0,0,1-.55,1.4,1.76,1.76,0,0,1-1.31.59H63.21a1.74,1.74,0,0,1-1.3-.59,2,2,0,0,1-.56-1.4V5.13a1.88,1.88,0,0,1,.56-1.39,1.78,1.78,0,0,1,1.3-.56H84.09a1.8,1.8,0,0,1,1.31.56A1.88,1.88,0,0,1,86,5.13V9a1.91,1.91,0,0,1-.57,1.35,1.77,1.77,0,0,1-1.29.6Z"/><path fill="#ffffff" d="M115.5,3.14a1.87,1.87,0,0,1,1.33.55A1.72,1.72,0,0,1,117.4,5v5.13A2,2,0,0,1,115.5,12h-7V32A2.08,2.08,0,0,1,108,33.4a1.62,1.62,0,0,1-1.26.57h-5.88a1.64,1.64,0,0,1-1.26-.55A2,2,0,0,1,99.09,32l.31-20H92.32a1.81,1.81,0,0,1-1.39-.58,1.85,1.85,0,0,1-.56-1.33V5a1.71,1.71,0,0,1,.56-1.28,1.93,1.93,0,0,1,1.39-.53Z"/><path fill="#ffffff" d="M122.71,32V5a2.12,2.12,0,0,1,.53-1.44A1.83,1.83,0,0,1,124.66,3h6.06a1.8,1.8,0,0,1,1.35.59A2.09,2.09,0,0,1,132.62,5V32a2,2,0,0,1-.55,1.48,1.83,1.83,0,0,1-1.35.55h-6.06a1.87,1.87,0,0,1-1.42-.55A2.06,2.06,0,0,1,122.71,32Z"/><path fill="#ffffff" d="M138.81,32.38V4.56a1.49,1.49,0,0,1,.47-1.09A1.52,1.52,0,0,1,140.4,3h6.86a2.33,2.33,0,0,1,.93.2,1.63,1.63,0,0,1,.66.42l8.23,9,8.63-9a2.15,2.15,0,0,1,1.17-.57A11.19,11.19,0,0,1,168.4,3h6a1.48,1.48,0,0,1,1.08.46,1.49,1.49,0,0,1,.47,1.09V32.38a1.57,1.57,0,0,1-.45,1.13,1.44,1.44,0,0,1-1.1.46h-5.93a1.68,1.68,0,0,1-1.17-.46,1.48,1.48,0,0,1-.51-1.13V16.1l-7.12,9a2.72,2.72,0,0,1-2.26,1.19,2.91,2.91,0,0,1-1.26-.29,2.43,2.43,0,0,1-.95-.77l-7.3-9.16,0,16.28a1.56,1.56,0,0,1-.44,1.13,1.44,1.44,0,0,1-1.1.46h-6a1.5,1.5,0,0,1-1.12-.48A1.59,1.59,0,0,1,138.81,32.38Z"/><path fill="#ffffff" d="M191.19,10.93v3.58h12.47a1.73,1.73,0,0,1,1.26.55,1.89,1.89,0,0,1,.55,1.39V20.3a1.92,1.92,0,0,1-.55,1.35,1.68,1.68,0,0,1-1.26.6H191.19v3.94h13.09a1.79,1.79,0,0,1,1.31.55,2,2,0,0,1,.55,1.44V32a2,2,0,0,1-.55,1.4,1.76,1.76,0,0,1-1.31.59H183.4a1.72,1.72,0,0,1-1.3-.59,2,2,0,0,1-.56-1.4V5.13a1.88,1.88,0,0,1,.56-1.39,1.76,1.76,0,0,1,1.3-.56h20.88a1.8,1.8,0,0,1,1.31.56,1.92,1.92,0,0,1,.55,1.39V9a1.88,1.88,0,0,1-.58,1.35,1.74,1.74,0,0,1-1.28.6Z"/><path fill="#ffffff" d="M210.07,28.44a3.3,3.3,0,0,1,.8-1.86l1.64-2.12A11.12,11.12,0,0,1,213.64,23a1.26,1.26,0,0,1,.9-.42,2.42,2.42,0,0,1,1,.27c.38.18.91.47,1.59.88l2.25,1.55a8.27,8.27,0,0,0,5.31,1.28,2.45,2.45,0,0,0,1.66-.59,1.77,1.77,0,0,0,.6-1.35,2.53,2.53,0,0,0-1.06-1.95,5.16,5.16,0,0,0-3-1h0a21.58,21.58,0,0,1-6.06-2,7.65,7.65,0,0,1-3.09-2.9,10,10,0,0,1-1.11-4.15,9.11,9.11,0,0,1,1.24-5.33A9.94,9.94,0,0,1,218,3.47a12.91,12.91,0,0,1,6.1-1.39,18.2,18.2,0,0,1,5.13.75,17.43,17.43,0,0,1,3.88,1.53,9.15,9.15,0,0,1,2.76,2.19,1.72,1.72,0,0,1,.62,1.15,1.78,1.78,0,0,1-.33,1A12.59,12.59,0,0,1,235,10l-1.28,1.37a8.71,8.71,0,0,1-.95.91,1.14,1.14,0,0,1-.65.24,1.84,1.84,0,0,1-.79-.26c-.33-.18-.64-.36-.95-.56l-.82-.51a10.44,10.44,0,0,0-5.35-1.94A3.42,3.42,0,0,0,222,10a2.13,2.13,0,0,0-.82,1.66,2.4,2.4,0,0,0,.8,1.75,4,4,0,0,0,2.26,1q6.31,1,9.44,3.76a8.34,8.34,0,0,1,3.12,6.37,8.92,8.92,0,0,1-1.66,5.1,12.24,12.24,0,0,1-4.6,4,14.13,14.13,0,0,1-6.57,1.52A20.69,20.69,0,0,1,212,31Q210.07,29.64,210.07,28.44Z"/><path fill="#ffffff" d="M240.82,33.22V3.85a1,1,0,0,1,.44-.8,2,2,0,0,1,1.15-.31h6.5l3.15-.09A21.1,21.1,0,0,1,260,3.85a7.21,7.21,0,0,1,3.89,3.23,10.7,10.7,0,0,1,1,4.91,8.57,8.57,0,0,1-1.64,5.22,8.36,8.36,0,0,1,3.34,3,8.71,8.71,0,0,1,1,4.4,10.11,10.11,0,0,1-.05,1.11,11.46,11.46,0,0,1-1,4.27A7.29,7.29,0,0,1,263,33.18a17.53,17.53,0,0,1-7.61,1.32H242.68a2.24,2.24,0,0,1-1.33-.37A1.11,1.11,0,0,1,240.82,33.22Zm12.34-18.09a3.43,3.43,0,0,0,2.37-.84,2.69,2.69,0,0,0,.82-2q0-2.79-3.72-3H249.8a.49.49,0,0,0-.33.14.37.37,0,0,0-.16.31v5a.31.31,0,0,0,.14.27.58.58,0,0,0,.35.09Zm1.11,12.69a4.56,4.56,0,0,0,2.92-1,3.1,3.1,0,0,0,1-2.39,2.89,2.89,0,0,0-1.06-2.37,6.07,6.07,0,0,0-3.63-.9h-3.41c-.44,0-.66.1-.66.31v5.93a.32.32,0,0,0,.18.28.85.85,0,0,0,.48.11Z"/><path fill="#ffffff" d="M270.72,18.67a15.68,15.68,0,0,1,2.19-8.1,16.39,16.39,0,0,1,5.91-5.9,15.62,15.62,0,0,1,8.09-2.19A15.78,15.78,0,0,1,295,4.67a16.36,16.36,0,0,1,5.93,5.9,15.68,15.68,0,0,1,2.19,8.1A15.65,15.65,0,0,1,301,26.76,16.39,16.39,0,0,1,295,32.67a15.78,15.78,0,0,1-8.12,2.19,15.62,15.62,0,0,1-8.09-2.19,16.41,16.41,0,0,1-5.91-5.91A15.65,15.65,0,0,1,270.72,18.67Zm23.09-.4a6.6,6.6,0,0,0-1-3.5,7.33,7.33,0,0,0-2.59-2.54,6.76,6.76,0,0,0-3.47-1,7,7,0,0,0-6.1,3.49,6.84,6.84,0,0,0-.93,3.5,6.94,6.94,0,0,0,.93,3.52,7,7,0,0,0,6.1,3.51,6.67,6.67,0,0,0,3.47-.95,7.3,7.3,0,0,0,2.59-2.56A6.69,6.69,0,0,0,293.81,18.27Z"/><path fill="#ffffff" d="M305.8,18.67a15.68,15.68,0,0,1,2.19-8.1,16.39,16.39,0,0,1,5.91-5.9A15.62,15.62,0,0,1,322,2.48a15.78,15.78,0,0,1,8.12,2.19,16.36,16.36,0,0,1,5.93,5.9,15.68,15.68,0,0,1,2.19,8.1A15.65,15.65,0,0,1,336,26.76a16.39,16.39,0,0,1-5.93,5.91A15.78,15.78,0,0,1,322,34.86a15.62,15.62,0,0,1-8.09-2.19A16.41,16.41,0,0,1,308,26.76,15.65,15.65,0,0,1,305.8,18.67Zm23.09-.4a6.6,6.6,0,0,0-1-3.5,7.33,7.33,0,0,0-2.59-2.54,6.73,6.73,0,0,0-3.47-1,6.9,6.9,0,0,0-3.56,1,7,7,0,0,0,0,12.12,6.8,6.8,0,0,0,3.56.95,6.64,6.64,0,0,0,3.47-.95,7.3,7.3,0,0,0,2.59-2.56A6.69,6.69,0,0,0,328.89,18.27Z"/><path fill="#ffffff" d="M373.75,32.07a1.91,1.91,0,0,1-.33,1.13,1.14,1.14,0,0,1-.87.51l-8,0a1.33,1.33,0,0,1-1.1-.57l-5.93-8.5-6.24,8.45a1.29,1.29,0,0,1-.6.62,1.87,1.87,0,0,1-.9.22h-6.33a1.59,1.59,0,0,1-1.72-1.72v-27a1.64,1.64,0,0,1,1.72-1.72h6.33a1.65,1.65,0,0,1,1.21.51,1.65,1.65,0,0,1,.51,1.21V17l9.78-12.43A2.87,2.87,0,0,1,364,3.67l6.81.05h0a1,1,0,0,1,1,1.1,2.46,2.46,0,0,1-.53,1.42l-7.52,10.21,9.82,14.65A1.82,1.82,0,0,1,373.75,32.07Z"/><path fill="#ffffff" d="M378.39,32V5a2.12,2.12,0,0,1,.53-1.44A1.84,1.84,0,0,1,380.34,3h6.06a1.8,1.8,0,0,1,1.35.59A2,2,0,0,1,388.3,5V32a2,2,0,0,1-.55,1.48,1.83,1.83,0,0,1-1.35.55h-6.06a1.88,1.88,0,0,1-1.42-.55A2.06,2.06,0,0,1,378.39,32Z"/><path fill="#ffffff" d="M420.11,33.66c-.18-.09-1.46-1.38-3.85-3.89s-5.89-6.21-10.49-11.1c-.44-.45-.72-.67-.84-.67a.22.22,0,0,0-.22.2,3.39,3.39,0,0,0,0,.64V32.07a1.75,1.75,0,0,1-.51,1.24,1.69,1.69,0,0,1-1.26.53H397a1.9,1.9,0,0,1-1.46-.69,2.27,2.27,0,0,1-.62-1.61V5.48a2.54,2.54,0,0,1,.66-1.72A2,2,0,0,1,397.15,3h5.48a2.73,2.73,0,0,1,1.18.2,4,4,0,0,1,1.08.9L411.53,11q4.59,4.8,7.21,7.45a1.12,1.12,0,0,0,.48.22c.18,0,.27-.23.27-.71V4.82A1.79,1.79,0,0,1,420,3.56,1.6,1.6,0,0,1,421.21,3h5.62a2.26,2.26,0,0,1,1.68.71,2.24,2.24,0,0,1,.71,1.63V31.67a2.22,2.22,0,0,1-.69,1.59A2.09,2.09,0,0,1,427,34h-5a7.62,7.62,0,0,1-1.17-.06A2.82,2.82,0,0,1,420.11,33.66Z"/><path fill="#ffffff" d="M433.24,18.49a16.36,16.36,0,0,1,2.13-8.25,15.68,15.68,0,0,1,5.75-5.88A15.19,15.19,0,0,1,449,2.21c.56,0,1,0,1.29,0a19.92,19.92,0,0,1,4,.57l.22,0a1.08,1.08,0,0,1,.75.36,1.14,1.14,0,0,1,.26.79,2,2,0,0,1-.17.84L453.5,9c-.47,1.21-1.18,1.81-2.12,1.81a10.25,10.25,0,0,0-5.86,1.51,7,7,0,0,0-2.9,4.46,8.54,8.54,0,0,0-.22,1.82,7.14,7.14,0,0,0,1.31,4.2,6.54,6.54,0,0,0,4,2.52,13.55,13.55,0,0,0,2.52.27,6.82,6.82,0,0,0,4.44-1.35,6.1,6.1,0,0,0,2.15-3.43H454.3a1.52,1.52,0,0,1-1.15-.46,1.66,1.66,0,0,1-.44-1.18V13.36a1.6,1.6,0,0,1,.46-1.15,1.49,1.49,0,0,1,1.13-.49h10.31a1.74,1.74,0,0,1,1.24.47,1.56,1.56,0,0,1,.48,1.17l-.08,3.18c0,.36-.07,1-.12,1.88s-.11,1.74-.19,2.5a14.34,14.34,0,0,1-2.7,7.06,16.24,16.24,0,0,1-5.84,5A16.09,16.09,0,0,1,450,34.77a16.32,16.32,0,0,1-8.19-2.19,17.22,17.22,0,0,1-6.19-5.95A15.14,15.14,0,0,1,433.24,18.49Z"/></svg>