<?xml version="1.0" encoding="UTF-8"?>
<svg viewBox="0 0 89.2 31.8" xmlns="http://www.w3.org/2000/svg">
<path d="m25.1 0.5h-23.2c-0.6 0-1 0.2-1.4 0.5-0.3 0.4-0.5 0.8-0.5 1.3v5.1c0 0.5 0.2 0.9 0.6 1.3s0.8 0.6 1.4 0.6h7l-0.3 20c0 0.6 0.2 1 0.5 1.4s0.8 0.6 1.3 0.6h5.9c0.5 0 0.9-0.2 1.3-0.6 0.3-0.4 0.5-0.9 0.5-1.4v-20h7c0.5 0 0.9-0.2 1.3-0.6 0.3-0.3 0.5-0.8 0.5-1.3v-5.1c0-0.5-0.2-0.9-0.6-1.3-0.3-0.3-0.8-0.5-1.3-0.5z" fill="#fff"/>
<path d="m56.6 0.5h-23.2c-0.6 0-1 0.2-1.4 0.5-0.4 0.4-0.6 0.8-0.6 1.3v5.1c0 0.5 0.2 0.9 0.6 1.3s0.8 0.6 1.4 0.6h7.1l-0.3 20c0 0.6 0.2 1 0.5 1.4s0.8 0.6 1.3 0.6h5.9c0.5 0 0.9-0.2 1.3-0.6 0.3-0.4 0.5-0.9 0.5-1.4v-20h7c0.5 0 0.9-0.2 1.3-0.6s0.6-0.8 0.6-1.3v-5.1c0-0.5-0.2-0.9-0.6-1.3-0.5-0.3-0.9-0.5-1.4-0.5z" fill="#fff"/>
<path d="m88.2 17.5c-0.7-1.1-1.8-2.1-3.3-3 1.1-1.5 1.6-3.2 1.6-5.2 0-1.9-0.3-3.6-1-4.9-0.7-1.4-2-2.4-3.9-3.2-2-0.8-4.6-1.2-8-1.2l-3.1 0.1h-6.5c-0.5 0-0.9 0.1-1.1 0.3-0.3 0.2-0.4 0.5-0.4 0.8v29.4c0 0.4 0.2 0.7 0.5 0.9 0.4 0.2 0.8 0.4 1.3 0.4h12.7c3.3 0 5.8-0.4 7.6-1.3s2.9-2 3.5-3.2c0.6-1.3 0.9-2.7 1-4.3v-1.1c0.1-1.9-0.3-3.3-0.9-4.5zm-17.4-10.4c0-0.1 0.1-0.2 0.2-0.3s0.2-0.1 0.3-0.1h2.8c2.5 0.1 3.7 1.1 3.7 3 0 0.8-0.3 1.5-0.8 2s-1.3 0.8-2.4 0.8h-3.4c-0.1 0-0.3 0-0.4-0.1s-0.1-0.1-0.1-0.3v-5zm7.9 17.1c-0.6 0.6-1.6 0.9-2.9 1h-4.2c-0.2 0-0.4 0-0.5-0.1s-0.2-0.2-0.2-0.3v-5.9c0-0.2 0.2-0.3 0.7-0.3h3.4c1.7 0 2.9 0.3 3.6 0.9s1.1 1.4 1.1 2.4c0 0.9-0.3 1.7-1 2.3z" fill="#fff"/>
</svg>