<svg xmlns="http://www.w3.org/2000/svg" x="0px" y="0px" viewBox="0 0 280 115">
<path fill="#B4BD00" d="M53.5,0.4c0.5,0,1,0.2,1.4,0.6c0.4,0.4,0.6,0.8,0.6,1.4v5.5c0,0.5-0.2,1-0.6,1.4c-0.4,0.4-0.9,0.6-1.4,0.6H46
	v21.4c0,0.6-0.2,1.1-0.5,1.5c-0.4,0.4-0.8,0.6-1.4,0.6h-6.3c-0.5,0-1-0.2-1.4-0.6c-0.4-0.4-0.5-0.9-0.5-1.5l0.3-21.5h-7.6
	c-0.6,0-1.1-0.2-1.5-0.6c-0.4-0.4-0.6-0.9-0.6-1.4V2.3c0-0.5,0.2-1,0.6-1.4c0.4-0.4,0.9-0.6,1.5-0.6H53.5z"/>
<path fill="#d1d5db" d="M70.7,8.7v3.8H84c0.5,0,1,0.2,1.4,0.6c0.4,0.4,0.6,0.9,0.6,1.5v4.1c0,0.5-0.2,1-0.6,1.4
	c-0.4,0.4-0.8,0.6-1.4,0.6H70.7v4.2h14c0.5,0,1,0.2,1.4,0.6c0.4,0.4,0.6,0.9,0.6,1.5v4.1c0,0.6-0.2,1.1-0.6,1.5
	c-0.4,0.4-0.9,0.6-1.4,0.6H62.3c-0.5,0-1-0.2-1.4-0.6c-0.4-0.4-0.6-0.9-0.6-1.5v-0.1v-3.9V6.6V2.5c0-0.6,0.2-1.1,0.6-1.5
	c0.4-0.4,0.9-0.6,1.4-0.6h22.4c0.5,0,1,0.2,1.4,0.6c0.4,0.4,0.6,0.9,0.6,1.5v4.1c0,0.5-0.2,1-0.6,1.4c-0.4,0.4-0.9,0.6-1.4,0.6
	H70.7z"/>
<path fill="#d1d5db" d="M102.7,8.7v3.8h13.4c0.5,0,1,0.2,1.4,0.6c0.4,0.4,0.6,0.9,0.6,1.5v4.1c0,0.5-0.2,1-0.6,1.4
	c-0.4,0.4-0.8,0.6-1.4,0.6h-13.4v4.2h14c0.5,0,1,0.2,1.4,0.6c0.4,0.4,0.6,0.9,0.6,1.5v4.1c0,0.6-0.2,1.1-0.6,1.5
	c-0.4,0.4-0.9,0.6-1.4,0.6H94.4c-0.5,0-1-0.2-1.4-0.6c-0.4-0.4-0.6-0.9-0.6-1.5v-0.1v-3.9V6.6V2.5c0-0.6,0.2-1.1,0.6-1.5
	c0.4-0.4,0.9-0.6,1.4-0.6h22.4c0.5,0,1,0.2,1.4,0.6c0.4,0.4,0.6,0.9,0.6,1.5v4.1c0,0.5-0.2,1-0.6,1.4c-0.4,0.4-0.9,0.6-1.4,0.6
	H102.7z"/>
<path fill="#d1d5db" d="M245.3,81.7c0-1,0.2-1.9,0.7-2.7c0.5-0.8,1.2-1.5,2-2c0.9-0.5,1.8-0.7,2.8-0.7c1,0,1.9,0.3,2.8,0.8
	c0.2,0.1,0.3,0.2,0.3,0.4c0,0.1-0.1,0.3-0.2,0.4l-1.4,1.6c-0.1,0.1-0.2,0.1-0.3,0.1c-0.1,0-0.2,0-0.3-0.1
	c-0.3-0.1-0.6-0.2-0.9-0.2c-0.4,0-0.8,0.1-1.2,0.3c-0.4,0.2-0.6,0.5-0.9,0.8c-0.2,0.3-0.3,0.7-0.3,1.1c0,0.4,0.1,0.8,0.3,1.1
	c0.2,0.3,0.5,0.6,0.9,0.8c0.4,0.2,0.7,0.3,1.2,0.3c0.3,0,0.6-0.1,1-0.2c0.1,0,0.2-0.1,0.3-0.1c0.1,0,0.2,0,0.3,0.1l1.6,1.6
	c0.1,0.1,0.2,0.3,0.2,0.4c0,0.2-0.1,0.3-0.2,0.4c-1,0.6-2,0.9-3.1,0.9c-1,0-1.9-0.2-2.8-0.7c-0.9-0.5-1.5-1.1-2-2
	C245.6,83.6,245.3,82.7,245.3,81.7z"/>
<path fill="#d1d5db" d="M254.7,81.8c0-1,0.2-1.9,0.7-2.7c0.5-0.8,1.1-1.5,2-2c0.8-0.5,1.7-0.7,2.7-0.7c1,0,1.9,0.2,2.7,0.7
	c0.8,0.5,1.5,1.1,2,2c0.5,0.8,0.7,1.7,0.7,2.7c0,1-0.2,1.9-0.7,2.7c-0.5,0.8-1.1,1.5-2,2c-0.8,0.5-1.7,0.7-2.7,0.7
	c-1,0-1.9-0.2-2.7-0.7c-0.8-0.5-1.5-1.1-2-2C254.9,83.7,254.7,82.8,254.7,81.8z M262.4,81.7c0-0.4-0.1-0.8-0.3-1.2
	c-0.2-0.4-0.5-0.6-0.9-0.9c-0.4-0.2-0.7-0.3-1.2-0.3c-0.4,0-0.8,0.1-1.2,0.3c-0.4,0.2-0.6,0.5-0.8,0.9c-0.2,0.4-0.3,0.7-0.3,1.2
	c0,0.4,0.1,0.8,0.3,1.2c0.2,0.4,0.5,0.6,0.8,0.9c0.4,0.2,0.8,0.3,1.2,0.3c0.4,0,0.8-0.1,1.2-0.3c0.4-0.2,0.6-0.5,0.9-0.9
	C262.3,82.5,262.4,82.1,262.4,81.7z"/>
<path fill="#d1d5db" d="M266.8,86.4v-9.3c0-0.1,0.1-0.3,0.2-0.4c0.1-0.1,0.2-0.2,0.4-0.2h2.3c0.1,0,0.2,0,0.3,0.1
	c0.1,0,0.2,0.1,0.2,0.1l2.7,3l2.9-3c0.1-0.1,0.2-0.2,0.4-0.2c0.1,0,0.3,0,0.5,0h2c0.1,0,0.3,0.1,0.4,0.2c0.1,0.1,0.2,0.2,0.2,0.4
	v9.3c0,0.1,0,0.3-0.1,0.4c-0.1,0.1-0.2,0.2-0.4,0.2h-2c-0.1,0-0.3-0.1-0.4-0.2c-0.1-0.1-0.2-0.2-0.2-0.4V81l-2.4,3
	c-0.2,0.3-0.4,0.4-0.8,0.4c-0.1,0-0.3,0-0.4-0.1c-0.1-0.1-0.2-0.1-0.3-0.3l-2.4-3.1l0,5.4c0,0.1,0,0.3-0.1,0.4
	c-0.1,0.1-0.2,0.2-0.4,0.2h-2c-0.1,0-0.3-0.1-0.4-0.2C266.9,86.7,266.8,86.5,266.8,86.4z"/>
<path fill="#006E63" d="M100.6,38.9c0.5,0,1,0.2,1.4,0.6c0.4,0.4,0.6,0.8,0.6,1.4v5.5c0,0.5-0.2,1-0.6,1.4c-0.4,0.4-0.9,0.6-1.4,0.6
	h-7.5v21.4c0,0.6-0.2,1.1-0.5,1.5c-0.4,0.4-0.8,0.6-1.4,0.6h-6.3c-0.5,0-1-0.2-1.4-0.6C83.2,71,83,70.5,83,69.9l0.3-21.5h-7.6
	c-0.6,0-1.1-0.2-1.5-0.6c-0.4-0.4-0.6-0.9-0.6-1.4v-5.5c0-0.5,0.2-1,0.6-1.4c0.4-0.4,0.9-0.6,1.5-0.6H100.6z"/>
<path fill="#d1d5db" d="M108.4,69.9V40.9c0-0.6,0.2-1.1,0.6-1.5c0.4-0.4,0.9-0.6,1.5-0.6h6.5c0.6,0,1.1,0.2,1.4,0.6
	c0.4,0.4,0.6,0.9,0.6,1.5v28.9c0,0.7-0.2,1.2-0.6,1.6c-0.4,0.4-0.9,0.6-1.4,0.6h-6.5c-0.6,0-1.1-0.2-1.5-0.6
	C108.6,71.1,108.4,70.5,108.4,69.9z"/>
<path fill="#d1d5db" d="M125.6,70.2V40.4c0-0.4,0.2-0.8,0.5-1.2c0.3-0.3,0.7-0.5,1.2-0.5h7.4c0.3,0,0.6,0.1,1,0.2
	c0.3,0.1,0.6,0.3,0.7,0.5l8.8,9.7l9.3-9.6c0.4-0.3,0.8-0.6,1.3-0.6c0.5-0.1,1-0.1,1.6-0.1h6.4c0.4,0,0.8,0.2,1.2,0.5
	c0.3,0.3,0.5,0.7,0.5,1.2v29.8c0,0.5-0.2,0.9-0.5,1.2c-0.3,0.3-0.7,0.5-1.2,0.5h-6.4c-0.5,0-0.9-0.2-1.3-0.5
	c-0.4-0.3-0.5-0.7-0.5-1.2V52.8l-7.6,9.7c-0.6,0.9-1.4,1.3-2.4,1.3c-0.5,0-0.9-0.1-1.4-0.3c-0.4-0.2-0.8-0.5-1-0.8l-7.8-9.8
	l0,17.5c0,0.5-0.2,0.9-0.5,1.2c-0.3,0.3-0.7,0.5-1.2,0.5h-6.4c-0.5,0-0.9-0.2-1.2-0.5C125.8,71.1,125.6,70.7,125.6,70.2z"/>
<path fill="#d1d5db" d="M181.8,47.2v3.8h13.4c0.5,0,1,0.2,1.4,0.6c0.4,0.4,0.6,0.9,0.6,1.5v4.1c0,0.5-0.2,1-0.6,1.4
	c-0.4,0.4-0.8,0.6-1.4,0.6h-13.4v4.2h14c0.5,0,1,0.2,1.4,0.6c0.4,0.4,0.6,0.9,0.6,1.5v4.1c0,0.6-0.2,1.1-0.6,1.5
	c-0.4,0.4-0.9,0.6-1.4,0.6h-22.4c-0.5,0-1-0.2-1.4-0.6c-0.4-0.4-0.6-0.9-0.6-1.5v-0.1v-3.9V45.1V41c0-0.6,0.2-1.1,0.6-1.5
	c0.4-0.4,0.9-0.6,1.4-0.6h22.4c0.5,0,1,0.2,1.4,0.6c0.4,0.4,0.6,0.9,0.6,1.5v4.1c0,0.5-0.2,1-0.6,1.4c-0.4,0.4-0.9,0.6-1.4,0.6
	H181.8z"/>
<path fill="#d1d5db" d="M202.1,66c0-0.6,0.3-1.2,0.9-2l1.8-2.3c0.5-0.7,0.9-1.2,1.2-1.5c0.3-0.3,0.6-0.5,1-0.5c0.3,0,0.6,0.1,1,0.3
	c0.4,0.2,1,0.5,1.7,0.9c0.1,0.1,0.9,0.6,2.4,1.7c1.5,1,3.4,1.5,5.7,1.4c0.8,0,1.4-0.2,1.8-0.6c0.4-0.4,0.6-0.9,0.6-1.4
	c0-0.8-0.4-1.5-1.1-2.1c-0.8-0.6-1.8-1-3.2-1.1h0c-2.8-0.6-5-1.3-6.5-2.2c-1.5-0.9-2.7-1.9-3.3-3.1c-0.7-1.2-1.1-2.7-1.2-4.5
	c-0.1-2.1,0.3-4,1.3-5.7c1-1.7,2.5-3.1,4.4-4.1c1.9-1,4.1-1.5,6.5-1.5c1.8,0,3.7,0.3,5.5,0.8c1.5,0.4,2.9,1,4.2,1.6
	c1.2,0.7,2.2,1.5,3,2.3c0.4,0.4,0.7,0.9,0.7,1.2c0,0.3-0.1,0.7-0.4,1c-0.2,0.4-0.6,0.9-1.2,1.5l-1.4,1.5c-0.4,0.5-0.8,0.8-1,1
	c-0.2,0.2-0.5,0.3-0.7,0.3c-0.2,0-0.5-0.1-0.9-0.3c-0.3-0.2-0.7-0.4-1-0.6c-0.3-0.2-0.6-0.4-0.9-0.5c-2.2-1.4-4.1-2.1-5.7-2.1
	c-1,0-1.8,0.2-2.4,0.7c-0.6,0.5-0.9,1.1-0.9,1.8s0.3,1.3,0.9,1.9c0.6,0.6,1.4,0.9,2.4,1.1c4.5,0.7,7.9,2,10.1,4
	c2.2,2,3.3,4.3,3.3,6.8c0,1.9-0.6,3.7-1.8,5.5c-1.2,1.8-2.8,3.2-4.9,4.3c-2.1,1.1-4.5,1.6-7,1.6c-4.2,0-8.5-1.5-12.8-4.5
	C202.8,67.8,202.1,66.9,202.1,66z"/>
<path fill="#1DCAD3" d="M0.6,112.2V94.5V80.7c0-0.3,0.2-0.6,0.5-0.9c0.3-0.2,0.7-0.3,1.2-0.3h7l3.4-0.1c3.6,0,6.5,0.4,8.5,1.3
	c2,0.9,3.4,2,4.2,3.5c0.7,1.5,1.1,3.2,1.1,5.3c0,2.2-0.6,4-1.8,5.6c1.7,0.9,2.9,2,3.6,3.2c0.7,1.2,1.1,2.8,1.1,4.7
	c0,0.5,0,0.9,0,1.2c-0.1,1.7-0.5,3.2-1.1,4.6c-0.6,1.3-1.9,2.5-3.8,3.4c-1.9,0.9-4.6,1.4-8.2,1.4H2.6c-0.6,0-1-0.1-1.4-0.4
	C0.7,112.9,0.6,112.6,0.6,112.2z M13.8,92.8c1.1,0,2-0.3,2.5-0.9c0.6-0.6,0.9-1.3,0.9-2.1c0-2-1.3-3.1-4-3.2h-3
	c-0.1,0-0.2,0-0.4,0.1c-0.1,0.1-0.2,0.2-0.2,0.3v5.4c0,0.1,0,0.2,0.1,0.3c0.1,0.1,0.2,0.1,0.4,0.1H13.8z M15,106.4
	c1.4-0.1,2.4-0.4,3.1-1c0.7-0.6,1-1.5,1-2.6c0-1.1-0.4-1.9-1.1-2.5c-0.8-0.6-2.1-0.9-3.9-1h-3.7c-0.5,0-0.7,0.1-0.7,0.3v6.4
	c0,0.1,0.1,0.2,0.2,0.3c0.1,0.1,0.3,0.1,0.5,0.1H15z"/>
<path fill="#d1d5db" d="M32.6,96.6c0-3.1,0.8-6,2.3-8.7c1.6-2.7,3.7-4.8,6.3-6.3c2.7-1.6,5.6-2.3,8.7-2.3c3.1,0,6,0.8,8.7,2.3
	c2.7,1.6,4.8,3.7,6.4,6.3c1.6,2.7,2.3,5.6,2.3,8.7c0,3.1-0.8,6-2.3,8.7c-1.6,2.7-3.7,4.8-6.4,6.3c-2.7,1.6-5.6,2.3-8.7,2.3
	c-3.1,0-6-0.8-8.7-2.3c-2.7-1.6-4.8-3.7-6.3-6.3C33.4,102.6,32.6,99.7,32.6,96.6z M57.4,96.2c0-1.4-0.3-2.6-1-3.7
	c-0.7-1.1-1.6-2-2.8-2.7c-1.2-0.7-2.4-1-3.7-1c-1.4,0-2.7,0.3-3.8,1c-1.2,0.7-2.1,1.6-2.7,2.7c-0.7,1.1-1,2.4-1,3.7
	c0,1.4,0.3,2.6,1,3.8c0.7,1.2,1.6,2.1,2.7,2.8c1.2,0.7,2.4,1,3.8,1c1.3,0,2.6-0.3,3.7-1c1.2-0.7,2.1-1.6,2.8-2.8
	C57,98.8,57.4,97.5,57.4,96.2z"/>
<path fill="#d1d5db" d="M70.3,96.6c0-3.1,0.8-6,2.3-8.7c1.6-2.7,3.7-4.8,6.3-6.3c2.7-1.6,5.6-2.3,8.7-2.3c3.1,0,6,0.8,8.7,2.3
	c2.7,1.6,4.8,3.7,6.4,6.3c1.6,2.7,2.3,5.6,2.3,8.7c0,3.1-0.8,6-2.3,8.7c-1.6,2.7-3.7,4.8-6.4,6.3c-2.7,1.6-5.6,2.3-8.7,2.3
	c-3.1,0-6-0.8-8.7-2.3c-2.7-1.6-4.8-3.7-6.3-6.3C71,102.6,70.3,99.7,70.3,96.6z M95,96.2c0-1.4-0.3-2.6-1-3.7
	c-0.7-1.1-1.6-2-2.8-2.7c-1.2-0.7-2.4-1-3.7-1c-1.4,0-2.7,0.3-3.8,1c-1.2,0.7-2.1,1.6-2.7,2.7c-0.7,1.1-1,2.4-1,3.7
	c0,1.4,0.3,2.6,1,3.8c0.7,1.2,1.6,2.1,2.7,2.8c1.2,0.7,2.4,1,3.8,1c1.3,0,2.6-0.3,3.7-1c1.2-0.7,2.1-1.6,2.8-2.8
	C94.7,98.8,95,97.5,95,96.2z"/>
<path fill="#d1d5db" d="M143.1,111c0,0.5-0.1,0.9-0.4,1.2c-0.2,0.3-0.5,0.5-0.9,0.5l-8.5,0c-0.5,0-0.9-0.2-1.2-0.6l-6.4-9.1l-6.7,9.1
	c-0.1,0.3-0.3,0.5-0.6,0.7c-0.3,0.2-0.6,0.2-1,0.2h-6.8c-0.6,0-1-0.2-1.4-0.5c-0.3-0.3-0.5-0.8-0.5-1.4V82.2c0-0.5,0.2-1,0.5-1.3
	c0.3-0.3,0.8-0.5,1.3-0.5h6.8c0.5,0,0.9,0.2,1.3,0.5c0.4,0.4,0.5,0.8,0.5,1.3v12.6l10.5-13.3c0.6-0.7,1.5-1,2.8-0.9l7.3,0h0
	c0.7,0.1,1,0.5,1,1.2c0,0.5-0.2,1-0.6,1.5l-8.1,11l10.5,15.7C143,110.2,143.1,110.6,143.1,111z"/>
<path fill="#d1d5db" d="M148.1,110.9V82c0-0.6,0.2-1.1,0.6-1.5c0.4-0.4,0.9-0.6,1.5-0.6h6.5c0.6,0,1.1,0.2,1.4,0.6
	c0.4,0.4,0.6,0.9,0.6,1.5v28.9c0,0.7-0.2,1.2-0.6,1.6c-0.4,0.4-0.9,0.6-1.4,0.6h-6.5c-0.6,0-1.1-0.2-1.5-0.6
	C148.3,112.1,148.1,111.6,148.1,110.9z"/>
<path fill="#d1d5db" d="M192.8,112.7c-0.2-0.1-1.6-1.5-4.1-4.2c-2.6-2.7-6.3-6.7-11.2-11.9c-0.5-0.5-0.8-0.7-0.9-0.7
	c-0.1,0-0.2,0.1-0.2,0.2c0,0.1,0,0.4,0,0.7V111c0,0.5-0.2,0.9-0.5,1.3c-0.4,0.4-0.8,0.6-1.4,0.6h-6.3c-0.6,0-1.1-0.2-1.6-0.7
	c-0.4-0.5-0.7-1.1-0.7-1.7V82.5c0-0.7,0.2-1.3,0.7-1.9c0.5-0.5,1-0.8,1.7-0.8h5.9c0.5,0,1,0.1,1.3,0.2c0.3,0.1,0.7,0.5,1.2,1
	c1.5,1.5,3.8,4,7.1,7.4c3.3,3.4,5.9,6.1,7.7,8c0.3,0.2,0.4,0.2,0.5,0.2c0.2,0,0.3-0.3,0.3-0.8V81.7c0-0.5,0.2-1,0.6-1.4
	c0.4-0.4,0.8-0.6,1.3-0.6h6c0.7,0,1.3,0.3,1.8,0.8c0.5,0.5,0.8,1.1,0.8,1.8v28.2c0,0.6-0.2,1.2-0.7,1.7c-0.5,0.5-1.1,0.8-1.7,0.8
	h-5.4c-0.6,0-1,0-1.3-0.1C193.3,112.9,193.1,112.8,192.8,112.7z"/>
<path fill="#d1d5db" d="M206.9,96.4c0-3.2,0.8-6.2,2.3-8.8c1.5-2.7,3.6-4.8,6.2-6.3c2.6-1.5,5.4-2.3,8.4-2.3c0.6,0,1.1,0,1.4,0
	c1.8,0.1,3.3,0.3,4.3,0.6l0.2,0c0.3,0,0.6,0.2,0.8,0.4c0.2,0.2,0.3,0.5,0.3,0.9c0,0.3-0.1,0.6-0.2,0.9l-1.9,4.4
	c-0.5,1.3-1.3,1.9-2.3,1.9c-2.6,0-4.7,0.5-6.3,1.6c-1.6,1.1-2.6,2.7-3.1,4.8c-0.2,0.7-0.2,1.4-0.2,1.9c0,1.7,0.5,3.2,1.4,4.5
	c0.9,1.3,2.3,2.2,4.2,2.7c1,0.2,1.9,0.3,2.7,0.3c2,0,3.6-0.5,4.8-1.4c1.2-1,2-2.2,2.3-3.7h-2.7c-0.5,0-0.9-0.2-1.2-0.5
	c-0.3-0.3-0.5-0.8-0.5-1.3v-6.2c0-0.5,0.2-0.9,0.5-1.2c0.3-0.3,0.7-0.5,1.2-0.5h11.1c0.5,0,1,0.2,1.3,0.5c0.3,0.3,0.5,0.8,0.5,1.3
	l-0.1,3.4c0,0.4-0.1,1.1-0.1,2c0,1-0.1,1.9-0.2,2.7c-0.3,2.8-1.3,5.3-2.9,7.6c-1.6,2.3-3.7,4-6.3,5.3c-2.5,1.3-5.2,1.9-8,1.9
	c-3.1,0-6-0.8-8.8-2.3c-2.8-1.6-5-3.7-6.6-6.4C207.8,102.4,206.9,99.5,206.9,96.4z"/>
<path fill="#1DCAD3" d="M243.3,82.1c0,2.6-2.1,4.6-4.6,4.6s-4.6-2.1-4.6-4.6c0-2.6,2.1-4.6,4.6-4.6S243.3,79.5,243.3,82.1z"/>
</svg>
