<svg xmlns="http://www.w3.org/2000/svg" viewBox="0 0 500 500"><path fill="transparent" class="st0" d="M178.7,142.9L178.7,142.9c35.7,0,64.5-28.9,64.5-64.5c0-35.6-28.9-64.4-64.5-64.4 		c-17.2-0.1-33.7,6.7-45.8,18.9c-18.5,18.4-24,46.2-14,70.4C129,127.4,152.6,143,178.7,142.9z"/><path fill="transparent" class="st0" d="M291.6,255.8c-12.3-41.9-50.7-70.8-94.4-71h-36.8c-54.3,0.2-98.3,44.4-98.1,98.7v108.1h142 		c-0.6-5.4-1-10.8-1-16.3C203.3,320.4,239.1,271.9,291.6,255.8z"/><path fill="transparent" class="st0" d="M327.9,264.6c-61.1,0-110.6,49.5-110.6,110.6s49.5,110.6,110.6,110.6s110.6-49.5,110.6-110.6 S389,264.6,327.9,264.6z M399.9,382h-64.2v64.2c0,3.9-3.1,7-7,7c-3.9,0-7-3.1-7-7V382h-64.2c-3.9,0-7-3.1-7-7c0-3.9,3.1-7,7-7h64.2 v-64.2c0-3.9,3.1-7,7-7c3.9,0,7,3.1,7,7V368h64.2c3.9,0,7,3.1,7,7C406.9,378.9,403.8,382,399.9,382z"/><path fill="white" d="M178.7,156.9v-6.8l0.1,7.1c43.5-0.1,78.7-35.3,78.7-78.8c0-20.9-8.3-40.9-23.1-55.6C219.6,8.2,199.6-0.1,178.7,0 	c-43.3,0-78.4,35.1-78.4,78.5C100.3,121.8,135.4,156.9,178.7,156.9z M132.9,32.9c12.1-12.2,28.6-19,45.8-18.9 c35.6,0,64.5,28.8,64.5,64.4c0,35.6-28.8,64.5-64.4,64.5h-0.1c-26.1,0.1-49.7-15.5-59.8-39.6C108.9,79.1,114.4,51.3,132.9,32.9z"/><path fill="white" d="M399.9,368h-64.2v-64.2c0-3.9-3.1-7-7-7c-3.9,0-7,3.1-7,7V368h-64.2c-3.9,0-7,3.1-7,7c0,3.9,3.1,7,7,7h64.2v64.2 c0,3.9,3.1,7,7,7c3.9,0,7-3.1,7-7V382h64.2c3.9,0,7-3.1,7-7C406.9,371.1,403.8,368,399.9,368z"/><path fill="white" d="M327.9,250.6c-7.6,0-15.2,0.7-22.7,2c-13.8-48.3-57.8-81.6-108-81.8h-36.8c-62,0.2-112.2,50.6-112.1,112.6v114.7 c0.1,4,2.7,7.6,6.6,7.6H207c14,55.4,63.8,94.2,120.9,94.3c68.7,0,124.6-56,124.6-124.7S396.6,250.6,327.9,250.6z M204.3,391.6h-142 V283.5c-0.2-54.3,43.8-98.5,98.1-98.7h36.8c43.7,0.2,82.1,29.1,94.4,71c-52.5,16.1-88.3,64.6-88.3,119.5 C203.3,380.8,203.7,386.2,204.3,391.6z M327.9,485.8c-61.1,0-110.6-49.5-110.6-110.6s49.5-110.6,110.6-110.6 s110.6,49.5,110.6,110.6S389,485.8,327.9,485.8z"/></svg>
